{"glyphs":{":":{"x_min":0,"x_max":315,"ha":315,"o":"m 223 52 q 223 25 204 5 q 184 -14 157 -14 q 129 -14 110 5 q 91 24 91 52 q 91 80 110 99 q 129 118 157 118 q 185 118 204 99 q 223 79 223 52 z m 223 332 q 223 305 204 286 q 184 266 157 266 q 129 266 110 285 q 91 304 91 332 q 91 360 110 379 q 129 398 157 398 q 185 398 204 379 q 223 359 223 332 z"},"$":{"x_min":0,"x_max":509,"ha":509,"o":"m 216 25 q 224 24 232 23 q 240 23 251 23 q 254 23 265 24 q 277 24 284 25 l 284 271 l 216 290 z m 307 262 l 307 31 q 362 47 388 76 q 415 105 415 149 q 415 193 392 218 q 368 242 307 262 z m 193 4 q 128 12 90 47 q 51 83 51 133 q 51 159 66 176 q 81 193 103 193 q 125 193 138 180 q 151 167 151 146 q 151 118 129 102 q 107 86 107 79 q 107 63 133 46 q 158 29 193 26 l 193 300 q 133 320 102 360 q 72 401 72 462 q 72 521 104 565 q 137 608 193 622 l 193 687 l 216 687 l 216 626 q 231 628 248 629 q 265 630 284 630 l 284 687 l 307 687 l 307 627 q 365 619 402 585 q 439 552 439 509 q 439 483 427 468 q 415 453 394 453 q 371 453 358 465 q 344 478 344 498 q 344 521 368 533 q 391 545 391 555 q 391 572 366 588 q 341 604 307 606 l 307 371 q 390 338 423 297 q 456 256 456 188 q 456 117 418 71 q 380 24 307 6 l 307 -97 l 284 -97 l 284 3 q 272 1 263 1 q 254 0 250 0 q 244 0 236 1 q 228 1 216 3 l 216 -97 l 193 -97 z m 216 398 l 284 378 l 284 608 l 267 608 q 253 608 240 607 q 228 606 216 605 z m 193 408 l 193 599 q 153 588 133 563 q 112 538 112 501 q 112 464 131 443 q 150 421 193 408 z"},"?":{"x_min":0,"x_max":444,"ha":444,"o":"m 135 50 q 135 77 154 97 q 174 116 201 116 q 229 116 248 97 q 267 78 267 50 q 267 22 248 3 q 229 -16 201 -16 q 173 -16 154 3 q 135 23 135 50 z m 211 206 l 179 206 q 179 224 177 255 q 176 286 176 297 q 176 346 196 383 q 215 419 268 462 q 308 495 323 519 q 339 543 339 569 q 339 607 308 633 q 277 658 230 658 q 188 658 158 641 q 128 624 128 603 q 128 601 154 592 q 179 583 179 550 q 179 529 166 516 q 152 503 131 503 q 108 503 94 519 q 81 535 81 562 q 81 610 125 646 q 169 681 233 681 q 306 681 355 635 q 405 589 405 523 q 405 467 375 422 q 346 377 264 320 q 229 296 220 277 q 210 259 210 228 q 210 219 210 215 q 210 210 211 206 z"},"<":{"x_min":0,"x_max":833,"ha":833,"o":"m 704 566 l 704 491 l 231 298 l 704 106 l 704 31 l 129 267 l 129 330 z"},"'":{"x_min":0,"x_max":172,"ha":172,"o":"m 95 420 l 78 420 l 44 644 q 44 645 43 648 q 42 658 42 662 q 42 687 53 700 q 65 714 86 714 q 106 714 118 701 q 130 688 130 664 q 130 661 130 657 q 129 653 128 644 z"},"=":{"x_min":0,"x_max":833,"ha":833,"o":"m 124 235 l 709 235 l 709 167 l 124 167 z m 124 429 l 709 429 l 709 361 l 124 361 z"},"a":{"x_min":0,"x_max":479,"ha":479,"o":"m 283 201 q 210 200 175 177 q 139 154 139 108 q 139 74 157 56 q 175 37 207 37 q 240 37 262 63 q 283 89 283 128 z m 286 51 l 281 51 q 253 18 219 2 q 185 -14 143 -14 q 91 -14 65 12 q 38 39 38 89 q 38 146 96 184 q 154 222 243 222 l 283 222 l 283 283 q 283 342 270 357 q 256 373 221 373 q 188 373 167 365 q 145 356 145 345 q 145 344 154 329 q 162 314 162 299 q 162 279 149 267 q 136 255 115 255 q 92 255 80 267 q 68 279 68 302 q 68 342 112 370 q 157 398 225 398 q 268 398 302 390 q 337 383 356 370 q 373 359 379 343 q 385 327 385 279 l 385 54 q 385 46 393 39 q 402 32 412 32 q 418 32 427 38 q 435 44 443 54 l 455 41 q 441 15 415 0 q 390 -14 359 -14 q 330 -14 312 2 q 294 18 286 51 z"},"L":{"x_min":0,"x_max":609,"ha":609,"o":"m 577 0 l 27 0 l 27 25 l 124 25 l 124 641 l 27 641 l 27 667 l 351 667 l 351 641 l 253 641 l 253 25 l 357 25 q 455 25 500 70 q 544 115 558 229 l 583 229 z"},"3":{"x_min":0,"x_max":509,"ha":509,"o":"m 243 345 l 243 337 q 342 327 393 285 q 444 243 444 171 q 444 85 382 34 q 320 -17 216 -17 q 138 -17 91 16 q 45 48 45 102 q 45 131 61 147 q 77 164 104 164 q 127 164 142 149 q 156 134 156 110 q 156 87 133 71 q 111 56 111 50 q 111 34 137 21 q 164 8 202 8 q 259 8 292 49 q 326 90 326 159 q 326 243 291 284 q 255 325 182 325 q 171 325 156 324 q 141 323 137 323 q 127 323 122 327 q 117 332 117 339 q 117 346 121 349 q 125 352 134 352 q 138 352 152 351 q 165 349 175 349 q 234 349 268 390 q 302 432 302 504 q 302 565 281 593 q 259 621 213 621 q 183 621 161 611 q 140 600 140 587 q 140 581 160 566 q 179 551 179 528 q 179 504 166 492 q 153 479 129 479 q 104 479 91 495 q 77 510 77 538 q 77 583 121 614 q 165 646 230 646 q 308 646 362 604 q 416 562 416 502 q 416 441 370 399 q 324 357 243 345 z"},";":{"x_min":0,"x_max":315,"ha":315,"o":"m 227 332 q 227 305 208 286 q 188 266 161 266 q 133 266 114 285 q 95 304 95 332 q 95 360 114 379 q 133 398 161 398 q 188 398 208 379 q 227 359 227 332 z m 144 -161 l 130 -142 q 176 -104 196 -69 q 217 -34 217 3 q 217 21 212 31 q 207 41 198 41 q 194 41 179 14 q 165 -12 133 -12 q 108 -12 94 4 q 80 20 80 46 q 80 79 100 100 q 119 120 151 120 q 193 120 221 87 q 249 54 249 2 q 249 -44 222 -86 q 194 -129 144 -161 z"},"J":{"x_min":0,"x_max":486,"ha":486,"o":"m 218 641 l 114 641 l 114 667 l 447 667 l 447 641 l 347 641 l 347 148 q 347 35 295 -26 q 243 -88 149 -88 q 90 -88 52 -59 q 13 -31 13 11 q 13 43 28 61 q 43 78 71 78 q 99 78 112 64 q 126 50 126 23 q 126 5 113 -12 q 99 -30 99 -38 q 99 -49 110 -56 q 120 -63 137 -63 q 177 -63 198 -38 q 218 -13 218 36 z"},"V":{"x_min":0,"x_max":664,"ha":664,"o":"m 350 -21 l 322 -21 l 84 641 l 2 641 l 2 667 l 315 667 l 315 641 l 212 641 l 380 181 l 391 181 l 552 641 l 449 641 l 449 667 l 662 667 l 662 641 l 583 641 z"},"\"":{"x_min":0,"x_max":335,"ha":335,"o":"m 257 420 l 240 420 l 206 644 q 206 647 205 651 q 205 655 205 662 q 205 687 216 700 q 227 714 248 714 q 269 714 280 701 q 292 688 292 664 q 292 656 292 652 q 292 648 291 644 z m 95 420 l 78 420 l 44 644 q 43 652 42 657 q 42 661 42 664 q 42 688 54 701 q 65 714 86 714 q 107 714 119 700 q 130 687 130 662 q 130 654 130 651 q 129 647 129 644 z"},"7":{"x_min":0,"x_max":509,"ha":509,"o":"m 87 447 l 61 447 l 115 632 l 466 632 l 466 614 q 455 595 439 565 q 424 534 401 481 l 350 366 q 326 311 312 264 q 299 218 299 188 q 299 160 312 114 q 324 68 324 47 q 324 17 309 0 q 293 -16 265 -16 q 232 -16 214 3 q 197 22 197 59 q 197 97 246 205 q 259 233 266 249 l 392 531 l 392 539 l 147 539 q 126 539 114 523 q 103 507 87 447 z"},"S":{"x_min":0,"x_max":553,"ha":553,"o":"m 87 -8 l 67 -8 l 67 191 l 95 191 q 116 103 160 57 q 205 12 271 12 q 339 12 382 52 q 425 91 425 155 q 425 201 397 229 q 369 258 306 275 l 243 293 q 152 318 111 366 q 70 414 70 494 q 70 579 119 630 q 168 681 251 681 q 294 681 328 670 q 361 658 391 633 l 430 674 l 445 674 l 445 486 l 422 486 q 401 569 358 612 q 314 655 251 655 q 193 655 157 623 q 120 591 120 541 q 120 502 144 480 q 168 458 237 440 l 308 420 q 397 396 438 345 q 479 294 479 209 q 479 108 423 46 q 366 -17 275 -17 q 234 -17 198 -5 q 163 7 125 34 z"},"}":{"x_min":0,"x_max":500,"ha":500,"o":"m 86 740 l 91 740 q 198 740 239 704 q 279 668 279 571 l 279 470 q 279 392 307 362 q 335 333 414 326 l 414 295 q 335 289 307 259 q 279 229 279 151 l 279 50 q 279 -47 239 -83 q 198 -119 91 -119 l 86 -119 l 86 -93 q 153 -92 177 -67 q 201 -41 201 35 l 201 104 q 201 215 230 255 q 258 294 336 310 q 259 326 230 365 q 201 405 201 516 l 201 585 q 201 662 177 688 q 152 713 86 714 z"},"Z":{"x_min":0,"x_max":609,"ha":609,"o":"m 539 0 l 28 0 l 28 32 l 403 634 l 403 641 l 272 641 q 187 641 146 607 q 106 574 86 488 l 59 488 l 72 667 l 551 667 l 551 634 l 174 32 l 174 25 l 334 25 q 423 25 464 66 q 505 107 526 220 l 553 220 z"},"x":{"x_min":0,"x_max":495,"ha":495,"o":"m 180 0 l 19 0 l 19 23 l 82 23 l 201 172 l 59 366 l 18 366 l 18 389 l 236 389 l 236 366 l 181 366 l 264 255 l 271 255 l 361 366 l 293 366 l 293 389 l 456 389 l 456 366 l 393 366 l 284 227 l 434 23 l 473 23 l 473 0 l 253 0 l 253 23 l 310 23 l 220 148 l 213 148 l 116 23 l 180 23 z"},")":{"x_min":0,"x_max":347,"ha":347,"o":"m 77 -190 q 151 -130 185 -44 q 218 43 218 180 l 218 283 q 218 420 185 507 q 151 593 77 653 l 77 681 q 187 606 248 488 q 309 370 309 231 q 309 93 248 -25 q 187 -143 77 -218 z"},"&":{"x_min":0,"x_max":831,"ha":831,"o":"m 479 84 l 288 363 q 226 339 199 314 q 173 289 173 254 q 173 220 188 180 q 202 141 231 97 q 256 59 281 41 q 307 24 338 24 q 367 24 401 38 q 435 53 479 84 z m 384 434 q 428 446 449 476 q 471 505 471 553 q 471 605 449 630 q 428 656 384 656 q 347 656 326 636 q 305 616 305 580 q 305 562 313 543 q 321 523 339 498 z m 671 25 l 764 25 l 764 0 l 534 0 l 494 60 q 435 17 385 -1 q 335 -19 277 -19 q 177 -19 120 31 q 64 80 64 167 q 64 239 115 293 q 166 347 273 387 q 243 434 229 470 q 216 505 216 537 q 216 601 266 641 q 316 681 396 681 q 469 681 516 648 q 563 614 563 563 q 563 517 522 478 q 481 438 402 409 l 562 183 l 572 183 l 579 193 q 611 237 626 286 q 642 334 643 392 l 546 392 l 546 418 l 763 418 l 763 392 l 673 392 q 667 317 646 260 q 624 202 583 150 z"},"_":{"x_min":0,"x_max":500,"ha":500,"o":"m 0 -166 l 500 -166 l 500 -236 l 0 -236 z"},"v":{"x_min":0,"x_max":498,"ha":498,"o":"m 266 -14 l 238 -14 l 76 366 l 23 366 l 23 389 l 250 389 l 250 366 l 185 366 l 289 125 l 296 125 l 395 366 l 324 366 l 324 389 l 475 389 l 475 366 l 424 366 z"},"O":{"x_min":0,"x_max":718,"ha":718,"o":"m 195 250 q 195 121 233 65 q 271 9 358 9 q 445 9 483 65 q 521 121 521 250 l 521 415 q 521 544 483 600 q 445 656 358 656 q 271 656 233 600 q 195 544 195 415 z m 53 332 q 53 482 140 582 q 228 681 359 681 q 490 681 577 582 q 664 483 664 332 q 664 182 577 83 q 490 -16 359 -16 q 227 -16 140 83 q 53 182 53 332 z"},"(":{"x_min":0,"x_max":347,"ha":347,"o":"m 309 -190 l 309 -218 q 199 -143 138 -25 q 77 93 77 231 q 77 370 138 488 q 199 606 309 681 l 309 653 q 234 593 201 507 q 168 420 168 283 l 168 180 q 168 43 201 -44 q 234 -130 309 -190 z"},"C":{"x_min":0,"x_max":662,"ha":662,"o":"m 592 -5 l 573 -5 l 533 39 q 491 10 448 -3 q 405 -16 354 -16 q 226 -16 141 83 q 56 182 56 332 q 56 485 142 583 q 227 681 361 681 q 411 681 450 669 q 490 656 521 631 l 558 669 l 577 669 l 577 477 l 552 477 q 532 566 483 611 q 434 655 357 655 q 271 655 234 599 q 196 543 196 415 l 196 250 q 196 122 233 65 q 271 9 356 9 q 440 9 493 58 q 546 107 565 202 l 592 202 z"},"W":{"x_min":0,"x_max":937,"ha":937,"o":"m 532 472 l 593 641 l 462 641 l 523 472 z m 394 169 l 453 338 l 347 641 l 215 641 l 385 169 z m 361 -21 l 329 -21 l 92 641 l 16 641 l 16 667 l 690 667 l 690 641 l 626 641 l 548 418 l 639 164 l 648 164 l 816 641 l 736 641 l 736 667 l 917 667 l 917 641 l 849 641 l 616 -21 l 583 -21 l 476 278 l 465 278 z"},"A":{"x_min":0,"x_max":664,"ha":664,"o":"m 182 227 l 382 227 l 287 498 l 276 498 z m 350 0 l 350 25 l 452 25 l 391 201 l 172 201 l 112 25 l 215 25 l 215 0 l 2 0 l 2 25 l 82 25 l 312 681 l 345 681 l 581 25 l 662 25 l 662 0 z"},"f":{"x_min":0,"x_max":331,"ha":331,"o":"m 282 0 l 14 0 l 14 23 l 93 23 l 93 366 l 14 366 l 14 389 l 93 389 l 93 432 q 93 562 136 620 q 180 678 275 678 q 320 678 348 658 q 375 638 375 606 q 375 581 362 566 q 349 552 326 552 q 302 552 290 563 q 277 575 277 596 q 277 612 290 624 q 303 636 303 643 q 303 650 296 655 q 290 659 279 659 q 244 659 221 620 q 199 581 199 515 l 199 389 l 294 389 l 294 366 l 199 366 l 199 23 l 282 23 z"},"Q":{"x_min":0,"x_max":718,"ha":718,"o":"m 618 -216 q 598 -220 583 -221 q 568 -223 556 -223 q 424 -223 357 -176 q 290 -128 290 -35 q 290 -26 290 -22 q 291 -17 291 -13 q 183 17 118 110 q 53 204 53 331 q 53 482 140 582 q 228 681 359 681 q 491 681 577 582 q 664 482 664 331 q 664 204 602 113 q 540 22 431 -11 q 431 -20 430 -28 q 430 -36 430 -45 q 430 -125 468 -160 q 505 -195 591 -195 q 602 -195 608 -195 q 613 -194 618 -194 z m 197 230 q 197 113 236 60 q 274 7 359 7 q 444 7 482 60 q 521 113 521 230 l 521 432 q 521 549 482 602 q 444 655 359 655 q 274 655 236 602 q 197 549 197 432 z"},"w":{"x_min":0,"x_max":657,"ha":657,"o":"m 225 -14 l 192 -14 l 58 366 l 5 366 l 5 389 l 231 389 l 231 366 l 165 366 l 245 137 l 252 137 l 350 389 l 382 389 l 479 137 l 486 137 l 569 366 l 495 366 l 495 389 l 653 389 l 653 366 l 598 366 l 463 -14 l 431 -14 l 329 238 l 322 238 z"},"-":{"x_min":0,"x_max":333,"ha":333,"o":"m 45 148 l 45 236 l 288 236 l 288 148 z"},"E":{"x_min":0,"x_max":664,"ha":664,"o":"m 253 337 l 253 25 l 373 25 q 469 25 514 68 q 559 112 575 220 l 598 220 l 592 0 l 27 0 l 27 25 l 124 25 l 124 641 l 27 641 l 27 667 l 572 667 l 579 487 l 556 487 q 532 577 496 609 q 459 641 378 641 l 253 641 l 253 358 l 265 358 q 339 358 369 384 q 398 411 405 481 l 428 481 l 428 213 l 405 213 q 398 285 368 311 q 339 337 260 337 z"},"s":{"x_min":0,"x_max":387,"ha":387,"o":"m 62 -5 l 53 -5 l 53 139 l 81 139 q 90 80 123 46 q 155 11 199 11 q 242 11 268 31 q 293 51 293 84 q 293 111 274 124 q 256 138 210 144 q 125 155 91 185 q 58 214 58 272 q 58 329 93 364 q 127 398 185 398 q 210 398 232 390 q 254 382 279 365 l 297 387 l 310 387 l 310 278 l 287 278 q 279 323 252 349 q 224 375 186 375 q 146 375 125 357 q 103 340 103 307 q 103 271 172 260 q 203 256 221 252 q 281 240 309 208 q 336 175 336 116 q 336 55 300 21 q 264 -14 200 -14 q 171 -14 148 -5 q 125 3 102 22 z"},">":{"x_min":0,"x_max":833,"ha":833,"o":"m 129 566 l 704 330 l 704 267 l 129 31 l 129 106 l 603 298 l 129 491 z"},"l":{"x_min":0,"x_max":282,"ha":282,"o":"m 93 646 l 16 646 l 16 669 l 91 669 q 110 669 139 671 q 167 674 199 678 l 199 23 l 271 23 l 271 0 l 16 0 l 16 23 l 93 23 z"},"8":{"x_min":0,"x_max":509,"ha":509,"o":"m 155 132 q 155 64 178 36 q 201 7 254 7 q 308 7 331 36 q 354 65 354 132 l 354 187 q 354 251 329 285 q 303 318 254 318 q 205 318 180 285 q 155 252 155 187 z m 171 454 q 171 402 192 375 q 212 349 254 349 q 295 349 317 375 q 338 402 338 454 l 338 520 q 338 570 317 596 q 295 622 254 622 q 213 622 192 596 q 171 570 171 520 z m 210 331 l 210 340 q 140 351 99 392 q 58 433 58 491 q 58 559 113 602 q 167 646 254 646 q 341 646 396 602 q 451 558 451 491 q 451 433 410 392 q 369 351 299 340 l 299 331 q 379 312 425 267 q 470 221 470 158 q 470 78 412 31 q 354 -16 254 -16 q 153 -16 96 31 q 38 78 38 158 q 38 220 84 266 q 129 312 210 331 z"},"\\":{"x_min":0,"x_max":278,"ha":278,"o":"m 251 -93 l 1 681 l 51 681 l 302 -93 z"},"e":{"x_min":0,"x_max":442,"ha":442,"o":"m 382 125 l 406 125 q 387 56 341 21 q 295 -14 224 -14 q 142 -14 87 43 q 32 100 32 182 q 32 271 88 334 q 145 398 224 398 q 302 398 354 350 q 406 301 406 228 l 406 219 l 150 219 l 150 100 q 150 59 174 34 q 198 10 238 10 q 288 10 327 41 q 366 72 382 125 z m 294 247 l 294 301 q 294 338 276 356 q 259 374 222 374 q 186 374 168 356 q 150 337 150 301 l 150 247 z"},"b":{"x_min":0,"x_max":553,"ha":553,"o":"m 199 -8 l 135 -2 q 135 -2 132 -2 q 98 0 56 0 q 51 0 41 0 q 31 -1 25 -1 l 25 23 l 93 23 l 93 646 l 25 646 l 25 669 l 89 669 q 108 669 136 671 q 165 674 197 678 l 197 338 l 211 338 q 236 370 263 384 q 290 398 325 398 q 405 398 458 339 q 512 281 512 192 q 512 104 459 45 q 407 -14 331 -14 q 294 -14 265 1 q 236 16 213 46 l 199 46 z m 199 143 q 199 86 236 47 q 273 9 324 9 q 359 9 376 33 q 394 58 394 108 l 394 117 l 394 257 q 394 326 376 352 q 359 377 317 377 q 273 377 236 337 q 199 297 199 249 z"},"%":{"x_min":0,"x_max":823,"ha":823,"o":"m 693 328 q 668 328 645 308 q 622 288 595 244 q 567 199 553 160 q 539 121 539 90 q 539 58 554 42 q 570 26 601 26 q 656 26 706 98 q 757 170 757 249 q 757 287 740 308 q 724 328 693 328 z m 457 105 q 457 204 529 285 q 601 365 681 365 q 730 365 758 334 q 785 303 785 247 q 785 150 721 69 q 657 -11 575 -11 q 524 -11 490 22 q 457 55 457 105 z m 269 605 q 250 604 234 593 q 218 582 200 558 q 163 510 142 458 q 120 407 120 368 q 120 336 134 320 q 148 303 175 303 q 235 303 286 375 q 337 446 337 527 q 337 538 337 543 q 336 548 336 553 q 306 563 292 575 q 278 586 269 605 z m 192 -30 l 548 587 q 512 565 477 553 q 442 542 410 542 q 396 542 384 543 q 373 545 363 548 q 363 542 363 535 q 364 527 364 525 q 364 426 300 346 q 237 267 154 267 q 101 267 69 301 q 37 334 37 391 q 37 433 55 475 q 73 517 107 556 q 145 599 184 621 q 222 642 262 642 q 298 642 323 625 q 347 608 358 575 q 370 570 382 567 q 394 565 408 565 q 458 565 504 589 q 551 613 596 661 l 634 661 l 235 -30 z"},"m":{"x_min":0,"x_max":776,"ha":776,"o":"m 252 23 l 252 0 l 25 0 l 25 23 l 92 23 l 92 366 l 25 366 l 25 389 l 89 389 q 108 389 136 391 q 165 394 197 398 l 197 308 l 206 308 q 232 352 267 375 q 302 398 342 398 q 382 398 412 373 q 441 349 448 308 l 457 308 q 483 352 518 375 q 553 398 593 398 q 649 398 675 366 q 700 335 700 265 l 700 23 l 755 23 l 755 0 l 541 0 l 541 23 l 594 23 l 594 289 q 594 326 585 341 q 576 355 554 355 q 513 355 481 309 q 448 262 448 203 l 448 23 l 504 23 l 504 0 l 290 0 l 290 23 l 343 23 l 343 289 q 343 328 333 341 q 324 355 300 355 q 261 355 229 308 q 197 262 197 203 l 197 23 z"},"#":{"x_min":0,"x_max":769,"ha":769,"o":"m 343 422 l 295 287 l 433 287 l 480 422 z m 371 712 l 447 712 l 368 490 l 503 490 l 582 712 l 658 712 l 579 490 l 726 490 l 702 422 l 555 422 l 508 287 l 664 287 l 640 219 l 484 219 l 405 -2 l 329 -2 l 408 219 l 272 219 l 193 -2 l 118 -2 l 196 219 l 43 219 l 68 287 l 220 287 l 268 422 l 104 422 l 129 490 l 292 490 z"},",":{"x_min":0,"x_max":255,"ha":255,"o":"m 113 -161 l 98 -142 q 144 -104 164 -69 q 185 -34 185 3 q 185 21 180 31 q 175 41 167 41 q 163 41 148 14 q 134 -12 102 -12 q 78 -12 63 4 q 49 20 49 46 q 49 80 68 100 q 87 120 119 120 q 162 120 190 87 q 218 54 218 2 q 218 -44 191 -86 q 164 -129 113 -161 z"},"n":{"x_min":0,"x_max":553,"ha":553,"o":"m 262 0 l 25 0 l 25 23 l 93 23 l 93 366 l 25 366 l 25 389 l 89 389 q 108 389 136 391 q 165 394 197 398 l 197 308 l 206 308 q 234 354 269 376 q 303 398 347 398 q 408 398 439 369 q 470 340 470 282 l 470 265 l 470 23 l 532 23 l 532 0 l 303 0 l 303 23 l 363 23 l 363 301 q 363 337 352 349 q 342 362 315 362 q 271 362 235 315 q 199 269 199 210 l 199 23 l 262 23 z"},"h":{"x_min":0,"x_max":553,"ha":553,"o":"m 25 0 l 25 23 l 93 23 l 93 646 l 25 646 l 25 669 l 89 669 q 108 669 136 671 q 165 674 197 678 l 197 309 l 203 309 q 253 366 282 382 q 311 398 348 398 q 409 398 439 369 q 470 340 470 282 l 470 265 l 470 23 l 532 23 l 532 0 l 303 0 l 303 23 l 363 23 l 363 316 q 363 338 350 350 q 338 363 316 363 q 272 363 236 316 q 199 269 199 210 l 199 23 l 262 23 l 262 0 z"},"z":{"x_min":0,"x_max":442,"ha":442,"o":"m 399 0 l 47 0 l 47 29 l 279 366 l 233 366 q 166 366 140 342 q 114 317 94 238 l 70 238 l 70 389 l 399 389 l 399 361 l 168 23 l 249 23 q 303 23 333 58 q 363 92 376 171 l 399 171 z"},"B":{"x_min":0,"x_max":664,"ha":664,"o":"m 251 334 l 251 25 l 337 25 q 421 25 451 58 q 481 92 481 180 q 481 264 443 299 q 405 334 313 334 z m 251 357 l 308 357 q 393 357 427 389 q 462 421 462 499 q 462 581 435 611 q 408 641 330 641 l 251 641 z m 28 0 l 28 25 l 125 25 l 125 641 l 28 641 l 28 667 l 358 667 q 486 667 542 630 q 599 593 599 511 q 599 451 558 415 q 518 379 417 353 l 417 343 q 518 332 570 289 q 623 246 623 174 q 623 89 555 44 q 487 0 357 0 z"},"K":{"x_min":0,"x_max":718,"ha":718,"o":"m 260 349 l 529 641 l 425 641 l 425 667 l 672 667 l 672 641 l 572 641 l 359 410 l 666 25 l 725 25 l 725 0 l 414 0 l 414 25 l 517 25 z m 352 0 l 28 0 l 28 25 l 125 25 l 125 641 l 28 641 l 28 667 l 352 667 l 352 641 l 255 641 l 255 25 l 352 25 z"},"R":{"x_min":0,"x_max":718,"ha":718,"o":"m 259 370 l 312 370 q 396 370 432 401 q 467 432 467 505 q 467 583 439 612 q 412 641 334 641 l 259 641 z m 356 0 l 32 0 l 32 25 l 130 25 l 130 641 l 32 641 l 32 667 l 362 667 q 490 667 546 631 q 603 594 603 513 q 603 449 554 411 q 505 373 400 356 l 400 348 q 499 330 541 282 q 582 235 582 141 l 582 98 q 582 53 597 36 q 613 19 651 19 q 657 19 665 21 q 672 22 681 25 l 681 -3 q 661 -8 649 -10 q 637 -12 627 -12 q 529 -12 488 21 q 447 55 443 142 l 440 206 q 436 290 400 317 q 363 345 259 347 l 259 25 l 356 25 z"},"T":{"x_min":0,"x_max":664,"ha":664,"o":"m 621 666 l 630 454 l 600 454 q 581 563 543 604 q 506 645 429 645 q 416 645 409 645 q 403 645 397 644 l 397 25 l 505 25 l 505 0 l 160 0 l 160 25 l 267 25 l 267 644 l 236 644 q 157 644 121 605 q 85 565 65 454 l 35 454 l 44 666 z"},"P":{"x_min":0,"x_max":664,"ha":664,"o":"m 362 0 l 32 0 l 32 25 l 130 25 l 130 641 l 32 641 l 32 667 l 361 667 q 494 667 560 621 q 627 576 627 484 q 627 393 559 349 q 491 305 348 305 l 259 305 l 259 25 l 362 25 z m 259 329 l 317 329 q 411 329 448 365 q 485 401 485 491 q 485 575 455 608 q 425 641 341 641 l 259 641 z"},"|":{"x_min":0,"x_max":500,"ha":500,"o":"m 214 764 l 287 764 l 287 -236 l 214 -236 z"},"t":{"x_min":0,"x_max":329,"ha":329,"o":"m 90 366 l 25 366 l 25 389 l 93 389 l 93 496 l 128 496 q 140 496 156 499 q 171 501 192 507 l 192 389 l 287 389 l 287 366 l 192 366 l 192 79 q 192 51 202 40 q 212 28 236 28 q 253 28 269 41 q 284 55 292 78 l 311 71 q 303 32 269 9 q 234 -14 186 -14 q 134 -14 112 5 q 90 24 90 72 z"},"M":{"x_min":0,"x_max":833,"ha":833,"o":"m 241 0 l 19 0 l 19 25 l 116 25 l 116 641 l 19 641 l 19 667 l 275 667 l 408 222 l 419 222 l 556 667 l 809 667 l 809 641 l 711 641 l 711 25 l 809 25 l 809 0 l 484 0 l 484 25 l 582 25 l 582 632 l 575 632 l 380 0 l 346 0 l 154 631 l 144 631 l 144 25 l 241 25 z"},"g":{"x_min":0,"x_max":444,"ha":444,"o":"m 125 -42 q 114 -56 109 -76 q 103 -96 103 -120 q 103 -163 135 -188 q 167 -212 222 -212 q 290 -212 338 -174 q 386 -136 386 -82 q 386 -58 371 -46 q 355 -34 323 -34 l 312 -34 l 209 -40 q 206 -40 178 -41 q 150 -42 125 -42 z m 155 312 l 155 215 q 155 178 167 164 q 178 150 210 150 q 242 150 254 164 q 266 178 266 215 l 266 312 q 266 349 254 363 q 242 377 210 377 q 178 377 167 363 q 155 349 155 312 z m 100 -42 l 100 -32 q 71 -23 55 -1 q 39 21 39 53 q 39 94 59 118 q 79 142 123 152 l 123 162 q 91 183 77 208 q 62 233 62 267 q 62 321 105 359 q 147 398 209 398 q 243 398 271 387 q 299 375 323 352 q 342 377 359 387 q 376 398 396 398 q 418 398 430 388 q 442 378 442 360 q 442 342 434 333 q 425 324 409 324 q 392 324 380 339 q 369 354 366 354 q 359 354 351 349 q 342 343 337 335 q 351 314 356 297 q 362 280 362 258 q 362 199 319 164 q 275 129 201 129 q 194 129 178 129 q 162 130 154 130 q 115 130 93 118 q 72 107 72 86 q 72 69 83 62 q 95 55 122 55 q 143 55 153 55 q 163 56 172 56 l 257 60 q 270 61 281 61 q 292 61 301 61 q 370 61 397 36 q 424 11 424 -51 q 424 -134 364 -185 q 304 -236 206 -236 q 133 -236 85 -204 q 37 -173 37 -127 q 37 -99 51 -80 q 65 -61 100 -42 z"},"j":{"x_min":0,"x_max":331,"ha":331,"o":"m 132 366 l 56 366 l 56 389 l 131 389 q 150 389 178 391 q 207 394 239 398 l 239 17 q 239 -102 196 -168 q 153 -234 78 -234 q 36 -234 9 -214 q -18 -193 -18 -162 q -18 -137 -5 -122 q 8 -108 31 -108 q 55 -108 67 -119 q 80 -131 80 -152 q 80 -164 74 -178 q 68 -191 68 -194 q 68 -200 74 -205 q 81 -210 89 -210 q 112 -210 122 -186 q 132 -162 132 -104 z m 119 589 q 119 613 135 629 q 152 646 176 646 q 200 646 217 629 q 233 613 233 589 q 233 565 217 549 q 200 532 176 532 q 152 532 135 549 q 119 565 119 589 z"},"i":{"x_min":0,"x_max":282,"ha":282,"o":"m 271 0 l 16 0 l 16 23 l 93 23 l 93 366 l 28 366 l 28 389 l 91 389 q 110 389 138 391 q 167 394 199 398 l 199 23 l 271 23 z m 79 589 q 79 613 95 629 q 112 646 136 646 q 160 646 177 629 q 194 613 194 589 q 194 565 177 549 q 160 532 136 532 q 112 532 95 549 q 79 565 79 589 z"},"y":{"x_min":0,"x_max":500,"ha":500,"o":"m 251 0 l 74 366 l 23 366 l 23 389 l 251 389 l 251 366 l 184 366 l 295 137 l 303 137 l 391 366 l 322 366 l 322 389 l 477 389 l 477 366 l 423 366 l 256 -68 q 215 -174 188 -204 q 160 -234 121 -234 q 99 -234 85 -220 q 72 -207 72 -184 q 72 -162 84 -148 q 97 -135 119 -135 q 141 -135 156 -149 q 171 -164 176 -164 q 184 -164 192 -151 q 201 -137 212 -107 z"},"@":{"x_min":0,"x_max":986,"ha":986,"o":"m 579 162 q 549 111 512 86 q 475 61 429 61 q 366 61 329 106 q 291 151 291 226 q 291 279 315 332 q 339 384 384 427 q 417 458 455 475 q 493 492 531 492 q 575 492 602 469 q 629 445 639 399 l 664 484 l 741 484 l 657 185 q 657 184 655 179 q 648 152 648 137 q 648 112 659 99 q 671 85 692 85 q 708 85 731 95 q 754 104 775 120 q 833 164 863 232 q 892 299 892 387 q 892 452 866 507 q 841 562 790 605 q 746 643 686 663 q 625 683 555 683 q 467 683 391 653 q 315 623 257 565 q 195 504 164 425 q 133 345 133 250 q 133 161 161 97 q 188 33 248 -17 q 301 -62 372 -86 q 443 -110 522 -110 q 605 -110 682 -85 q 758 -60 828 -9 l 844 -29 q 772 -83 692 -110 q 611 -137 523 -137 q 431 -137 354 -115 q 278 -93 220 -49 q 146 6 108 86 q 69 166 69 262 q 69 361 111 448 q 153 535 234 601 q 299 655 378 683 q 456 710 545 710 q 714 710 816 618 q 918 526 918 374 q 918 296 889 229 q 861 161 808 113 q 779 87 747 74 q 714 60 681 60 q 634 60 608 86 q 583 112 579 162 z m 539 469 q 513 469 491 454 q 469 439 447 406 q 412 354 392 292 q 371 230 371 180 q 371 138 390 113 q 410 87 440 87 q 472 87 500 108 q 528 129 554 173 q 581 218 597 272 q 614 327 614 369 q 614 414 593 442 q 573 469 539 469 z"},".":{"x_min":0,"x_max":255,"ha":255,"o":"m 193 52 q 193 25 173 5 q 154 -14 127 -14 q 99 -14 80 5 q 61 24 61 52 q 61 80 80 99 q 99 118 127 118 q 154 118 174 99 q 193 79 193 52 z"},"p":{"x_min":0,"x_max":553,"ha":553,"o":"m 25 -234 l 25 -211 l 92 -211 l 92 366 l 25 366 l 25 389 l 91 389 q 110 389 138 391 q 167 394 199 398 l 199 338 l 212 338 q 235 368 264 383 q 294 398 331 398 q 407 398 459 339 q 512 280 512 192 q 512 103 458 44 q 405 -14 325 -14 q 290 -14 263 0 q 236 14 211 46 l 199 46 l 199 -211 l 266 -211 l 266 -234 z m 199 241 l 199 135 q 199 86 236 47 q 272 7 316 7 q 358 7 375 32 q 393 58 393 125 l 393 127 l 393 267 q 393 325 377 350 q 360 375 324 375 q 273 375 236 337 q 199 298 199 241 z"},"X":{"x_min":0,"x_max":718,"ha":718,"o":"m 377 0 l 377 25 l 479 25 l 319 281 l 145 25 l 262 25 l 262 0 l 20 0 l 20 25 l 113 25 l 303 305 l 94 641 l 23 641 l 23 667 l 335 667 l 335 641 l 239 641 l 377 416 l 531 641 l 423 641 l 423 667 l 663 667 l 663 641 l 563 641 l 394 392 l 625 25 l 697 25 l 697 0 z"},"*":{"x_min":0,"x_max":500,"ha":500,"o":"m 244 490 l 244 498 q 244 534 227 577 q 210 621 210 634 q 210 655 221 668 q 232 681 250 681 q 267 681 279 669 q 290 656 290 637 q 290 622 273 578 q 256 533 256 496 l 256 490 q 290 507 326 553 q 363 599 392 599 q 408 599 418 588 q 429 577 429 560 q 429 542 417 530 q 404 518 380 513 q 376 512 364 511 q 307 506 262 480 q 301 456 359 449 q 376 447 382 446 q 403 440 416 427 q 429 414 429 398 q 429 382 417 371 q 406 360 389 360 q 364 360 328 405 q 292 449 256 469 l 256 461 q 256 425 273 382 q 290 339 290 326 q 290 305 279 292 q 268 279 250 279 q 232 279 221 291 q 210 303 210 322 q 210 337 227 381 q 244 426 244 463 l 244 469 q 210 452 174 406 q 137 361 108 361 q 92 361 81 372 q 71 383 71 399 q 71 417 83 429 q 96 441 120 447 q 124 448 133 448 q 191 453 238 480 q 199 504 140 511 q 124 513 118 514 q 95 520 83 532 q 71 544 71 561 q 71 577 83 589 q 94 600 111 600 q 136 600 172 555 q 208 510 244 490 z"},"Y":{"x_min":0,"x_max":662,"ha":662,"o":"m 512 25 l 512 0 l 175 0 l 175 25 l 279 25 l 279 306 l 70 641 l -5 641 l -5 667 l 317 667 l 317 641 l 214 641 l 384 363 l 394 363 l 547 641 l 444 641 l 444 667 l 655 667 l 655 641 l 578 641 l 408 326 l 408 25 z"},"c":{"x_min":0,"x_max":442,"ha":442,"o":"m 385 125 l 409 125 q 392 57 346 21 q 301 -14 231 -14 q 149 -14 96 43 q 42 100 42 184 q 42 276 101 337 q 159 398 249 398 q 315 398 354 369 q 394 340 394 292 q 394 268 380 253 q 366 239 342 239 q 317 239 302 253 q 287 268 287 291 q 287 312 300 329 q 313 346 313 347 q 313 360 297 368 q 281 375 253 375 q 203 375 181 344 q 158 314 158 246 l 158 100 q 158 56 181 33 q 204 10 249 10 q 295 10 333 43 q 372 76 385 125 z"},"!":{"x_min":0,"x_max":333,"ha":333,"o":"m 150 206 l 150 213 q 150 350 126 480 q 102 610 102 616 q 102 647 119 664 q 135 681 166 681 q 197 681 214 664 q 231 647 231 616 q 231 610 207 480 q 183 350 183 213 l 183 206 z m 233 50 q 233 23 213 3 q 194 -16 167 -16 q 139 -16 120 3 q 101 22 101 50 q 101 78 120 97 q 139 116 167 116 q 194 116 214 97 q 233 77 233 50 z"},"/":{"x_min":0,"x_max":278,"ha":278,"o":"m 27 -93 l -24 -93 l 227 681 l 278 681 z"},"[":{"x_min":0,"x_max":347,"ha":347,"o":"m 312 -208 l 69 -208 l 69 667 l 312 667 l 312 635 l 146 635 l 146 -176 l 312 -176 z"},"6":{"x_min":0,"x_max":509,"ha":509,"o":"m 168 308 q 166 281 164 254 q 163 227 163 201 q 163 90 186 47 q 208 5 262 5 q 307 5 331 41 q 354 78 354 148 l 354 241 q 354 313 334 345 q 313 377 268 377 q 241 377 219 363 q 198 349 168 308 z m 428 646 l 428 624 q 316 605 249 534 q 183 463 169 347 q 194 375 223 390 q 251 404 282 404 q 365 404 419 347 q 474 291 474 205 q 474 114 413 49 q 352 -16 265 -16 q 169 -16 109 59 q 48 135 48 257 q 48 410 155 520 q 262 630 428 646 z"},"r":{"x_min":0,"x_max":442,"ha":442,"o":"m 32 0 l 32 23 l 100 23 l 100 366 l 32 366 l 32 389 l 96 389 q 115 389 143 391 q 172 394 204 398 l 204 301 l 212 301 q 237 350 271 374 q 304 398 347 398 q 380 398 400 381 q 420 363 420 334 q 420 309 406 294 q 392 279 369 279 q 341 279 327 291 q 313 302 313 325 l 313 334 q 313 345 311 349 q 308 354 303 354 q 269 354 237 309 q 206 264 206 210 l 206 23 l 294 23 l 294 0 z"},"2":{"x_min":0,"x_max":509,"ha":509,"o":"m 429 0 l 40 0 l 40 70 l 186 207 q 264 280 292 333 q 321 386 321 448 q 321 527 292 570 q 264 612 211 612 q 162 612 127 584 q 92 556 92 525 q 92 517 97 511 q 102 506 109 506 q 114 506 124 507 q 134 508 139 508 q 160 508 173 493 q 186 479 186 455 q 186 431 171 417 q 156 402 130 402 q 99 402 79 427 q 59 452 59 490 q 59 557 114 601 q 168 646 253 646 q 335 646 388 599 q 441 552 441 481 q 441 434 413 389 q 385 344 307 274 l 113 101 l 113 93 l 349 93 q 386 93 396 108 q 407 123 413 188 l 436 188 z"},"{":{"x_min":0,"x_max":500,"ha":500,"o":"m 414 740 l 414 714 q 348 713 323 688 q 299 662 299 585 l 299 516 q 299 405 270 365 q 241 326 164 310 q 242 294 270 255 q 299 215 299 104 l 299 35 q 299 -42 323 -67 q 347 -92 414 -93 l 414 -119 l 409 -119 q 302 -119 262 -83 q 222 -47 222 50 l 222 151 q 222 229 193 259 q 165 289 87 295 l 87 326 q 166 333 194 362 q 222 392 222 470 l 222 571 q 222 668 262 704 q 302 740 409 740 z"},"9":{"x_min":0,"x_max":509,"ha":509,"o":"m 349 322 q 351 344 352 370 q 353 396 353 428 q 353 541 331 583 q 309 625 255 625 q 209 625 186 588 q 162 551 162 481 l 162 389 q 162 317 182 285 q 203 253 248 253 q 275 253 297 268 q 319 282 349 322 z m 88 -16 l 88 6 q 201 25 267 96 q 333 167 347 282 q 321 253 293 239 q 266 225 235 225 q 152 225 98 281 q 43 338 43 424 q 43 515 104 581 q 165 646 251 646 q 346 646 407 570 q 468 495 468 372 q 468 219 361 110 q 254 0 88 -16 z"}," ":{"x_min":0,"x_max":255,"ha":255,"o":""},"I":{"x_min":0,"x_max":389,"ha":389,"o":"m 356 0 l 32 0 l 32 25 l 130 25 l 130 641 l 32 641 l 32 667 l 356 667 l 356 641 l 259 641 l 259 25 l 356 25 z"},"H":{"x_min":0,"x_max":773,"ha":773,"o":"m 352 0 l 28 0 l 28 25 l 125 25 l 125 641 l 28 641 l 28 667 l 352 667 l 352 641 l 252 641 l 252 359 l 521 359 l 521 641 l 421 641 l 421 667 l 745 667 l 745 641 l 648 641 l 648 25 l 745 25 l 745 0 l 421 0 l 421 25 l 521 25 l 521 331 l 252 331 l 252 25 l 352 25 z"},"4":{"x_min":0,"x_max":509,"ha":509,"o":"m 270 201 l 270 544 q 193 436 144 357 q 95 279 52 201 z m 453 0 l 182 0 l 182 23 l 270 23 l 270 171 l 25 171 l 25 209 q 84 312 155 419 q 226 525 315 646 l 372 646 l 372 201 l 450 201 l 450 275 l 474 275 l 474 97 l 450 97 l 450 171 l 372 171 l 372 23 l 453 23 z"},"~":{"x_min":0,"x_max":833,"ha":833,"o":"m 747 376 l 747 300 q 696 265 650 248 q 604 231 557 231 q 512 231 432 259 q 421 263 416 265 l 408 268 q 322 297 275 297 q 234 297 189 279 q 145 261 87 220 l 87 296 q 139 331 186 349 q 232 366 276 366 q 306 366 338 360 q 370 353 418 336 q 426 333 441 328 q 519 300 558 300 q 601 300 646 318 q 690 336 747 376 z"},"D":{"x_min":0,"x_max":722,"ha":722,"o":"m 256 25 l 280 25 q 358 25 395 32 q 432 39 455 56 q 494 84 512 141 q 531 197 531 287 l 531 380 q 531 470 512 526 q 494 582 455 610 q 432 627 395 634 q 358 641 280 641 l 256 641 z m 28 0 l 28 25 l 125 25 l 125 641 l 28 641 l 28 667 l 331 667 q 486 667 578 575 q 670 483 670 333 q 670 183 578 91 q 486 0 331 0 z"},"^":{"x_min":0,"x_max":1000,"ha":1000,"o":"m 452 714 l 547 714 l 797 438 l 749 438 l 499 643 l 248 438 l 201 438 z"},"0":{"x_min":0,"x_max":509,"ha":509,"o":"m 469 315 q 469 178 406 81 q 342 -16 255 -16 q 167 -16 104 81 q 41 177 41 315 q 41 453 104 550 q 167 646 255 646 q 342 646 406 549 q 469 453 469 315 z m 159 250 q 159 104 180 54 q 200 5 255 5 q 310 5 330 54 q 351 104 351 250 l 351 380 q 351 526 330 576 q 310 625 255 625 q 200 625 180 576 q 159 526 159 380 z"},"F":{"x_min":0,"x_max":611,"ha":611,"o":"m 251 337 l 251 25 l 356 25 l 356 0 l 24 0 l 24 25 l 121 25 l 121 641 l 24 641 l 24 667 l 569 667 l 576 467 l 553 467 q 539 564 501 603 q 462 641 375 641 l 251 641 l 251 358 l 263 358 q 337 358 366 384 q 395 410 402 481 l 425 481 l 425 213 l 402 213 q 395 285 366 311 q 337 337 258 337 z"},"`":{"x_min":0,"x_max":500,"ha":500,"o":"m 336 452 l 300 452 l 153 542 q 129 557 121 567 q 112 578 112 591 q 112 606 123 618 q 134 629 149 629 q 161 629 174 621 q 188 613 201 599 z"},"k":{"x_min":0,"x_max":544,"ha":544,"o":"m 205 217 l 358 366 l 275 366 l 275 389 l 487 389 l 487 366 l 396 366 l 294 267 l 482 23 l 516 23 l 516 0 l 300 0 l 300 23 l 354 23 z m 93 646 l 16 646 l 16 669 l 91 669 q 110 669 139 671 q 167 674 199 678 l 199 23 l 268 23 l 268 0 l 16 0 l 16 23 l 93 23 z"},"u":{"x_min":0,"x_max":553,"ha":553,"o":"m 354 366 l 291 366 l 291 389 l 353 389 q 373 389 401 391 q 430 394 462 398 l 462 24 l 528 24 l 528 0 l 464 0 q 439 0 412 -2 q 385 -4 356 -8 l 356 81 l 347 81 q 319 35 285 13 q 250 -9 206 -9 q 145 -9 114 20 q 84 48 84 106 q 84 106 84 109 q 83 117 83 124 l 83 366 l 19 366 l 19 389 l 82 389 q 101 389 129 391 q 158 394 190 398 l 190 111 q 190 63 200 45 q 210 27 235 27 q 282 27 318 73 q 354 119 354 179 z"},"]":{"x_min":0,"x_max":347,"ha":347,"o":"m 35 -208 l 35 -176 l 201 -176 l 201 635 l 35 635 l 35 667 l 278 667 l 278 -208 z"},"U":{"x_min":0,"x_max":718,"ha":718,"o":"m 248 204 l 248 188 q 248 93 281 55 q 314 17 392 17 q 482 17 528 62 q 574 107 574 195 l 574 642 l 477 642 l 477 667 l 699 667 l 699 642 l 602 642 l 602 195 q 602 88 544 36 q 486 -16 367 -16 q 243 -16 181 33 q 118 83 118 180 l 118 642 l 21 642 l 21 667 l 345 667 l 345 642 l 248 642 z"},"o":{"x_min":0,"x_max":495,"ha":495,"o":"m 160 254 l 160 131 q 160 65 181 38 q 201 10 248 10 q 295 10 315 38 q 336 65 336 131 l 336 254 q 336 320 315 347 q 295 375 248 375 q 201 375 181 347 q 160 320 160 254 z m 42 192 q 42 273 104 336 q 166 398 248 398 q 331 398 392 336 q 454 273 454 192 q 454 110 392 48 q 331 -14 248 -14 q 166 -14 104 48 q 42 110 42 192 z"},"N":{"x_min":0,"x_max":713,"ha":713,"o":"m 561 222 l 571 222 l 571 641 l 474 641 l 474 667 l 696 667 l 696 641 l 599 641 l 599 -11 l 562 -11 l 153 625 l 144 625 l 144 25 l 241 25 l 241 0 l 19 0 l 19 25 l 116 25 l 116 641 l 19 641 l 19 667 l 275 667 z"},"+":{"x_min":0,"x_max":833,"ha":833,"o":"m 382 596 l 451 596 l 451 332 l 709 332 l 709 264 l 451 264 l 451 0 l 382 0 l 382 264 l 124 264 l 124 332 l 382 332 z"},"G":{"x_min":0,"x_max":718,"ha":718,"o":"m 208 250 q 208 122 246 65 q 284 9 370 9 q 437 9 465 43 q 494 77 494 155 l 494 219 l 395 219 l 395 244 l 703 244 l 703 219 l 638 219 q 635 110 565 46 q 494 -17 376 -17 q 239 -17 151 81 q 64 180 64 332 q 64 484 152 583 q 239 681 376 681 q 427 681 467 669 q 507 657 539 631 l 577 669 l 597 669 l 597 478 l 571 478 q 550 567 500 612 q 451 656 372 656 q 285 656 246 600 q 208 544 208 415 z"},"q":{"x_min":0,"x_max":553,"ha":553,"o":"m 529 -234 l 287 -234 l 287 -211 l 355 -211 l 355 46 l 343 46 q 318 14 291 0 q 264 -14 228 -14 q 148 -14 95 44 q 42 103 42 192 q 42 280 94 339 q 146 398 222 398 q 259 398 289 383 q 318 368 341 338 l 355 338 l 355 398 q 387 394 415 391 q 443 389 462 389 l 532 389 l 532 366 l 461 366 l 461 -211 l 529 -211 z m 355 241 q 355 298 318 337 q 281 375 230 375 q 193 375 177 350 q 160 324 160 267 l 160 127 q 160 58 177 32 q 195 7 237 7 q 281 7 318 47 q 355 86 355 135 z"},"d":{"x_min":0,"x_max":553,"ha":553,"o":"m 462 23 l 526 23 l 526 0 l 462 0 q 443 0 415 -2 q 387 -5 355 -9 l 355 46 l 341 46 q 318 16 289 1 q 259 -14 222 -14 q 146 -14 94 45 q 42 104 42 192 q 42 281 95 339 q 148 398 228 398 q 264 398 291 384 q 318 370 343 338 l 355 338 l 355 646 l 291 646 l 291 669 l 354 669 q 373 669 402 671 q 430 674 462 678 z m 354 143 l 354 249 q 354 297 317 337 q 281 377 237 377 q 195 377 177 352 q 160 326 160 257 l 160 117 q 160 60 177 34 q 193 9 230 9 q 281 9 317 47 q 354 84 354 141 z"},"1":{"x_min":0,"x_max":509,"ha":509,"o":"m 428 0 l 90 0 l 90 23 l 208 23 l 208 577 q 208 598 198 604 q 188 611 150 611 l 103 611 l 85 611 l 85 634 l 314 646 l 314 23 l 428 23 z"},"5":{"x_min":0,"x_max":509,"ha":509,"o":"m 390 666 l 410 666 q 410 663 411 659 q 411 654 411 653 q 411 595 383 571 q 355 547 276 547 l 131 547 l 127 364 q 163 374 183 377 q 203 380 219 380 q 332 380 395 329 q 458 277 458 186 q 458 97 392 41 q 327 -16 226 -16 q 152 -16 104 18 q 56 53 56 102 q 56 130 72 146 q 88 163 116 163 q 140 163 154 148 q 168 134 168 109 q 168 86 146 72 q 124 58 124 49 q 124 31 147 21 q 171 10 211 10 q 275 10 306 53 q 338 97 338 184 q 338 271 304 311 q 271 351 199 351 q 173 351 152 346 q 131 341 110 331 l 102 335 l 108 575 q 108 581 108 586 q 109 591 109 591 q 109 616 120 626 q 130 636 167 636 l 343 636 q 361 636 372 644 q 384 651 390 666 z"}}}
